<svg width="33" height="34" viewBox="0 0 33 34" fill="none" xmlns="http://www.w3.org/2000/svg">
<path d="M29.5885 11.5326C28.8818 9.84597 27.8537 8.31297 26.5616 7.01899C25.2733 5.72278 23.7429 4.69221 22.0574 3.98579C20.3308 3.2586 18.4756 2.88585 16.6021 2.88968H16.5391C14.6335 2.89913 12.7909 3.2771 11.0554 4.02044C9.38437 4.7341 7.8684 5.7665 6.59221 7.05994C5.31256 8.351 4.29627 9.87864 3.59995 11.5578C2.87714 13.3039 2.51089 15.1769 2.52274 17.0667C2.53219 19.2526 3.05505 21.4228 4.03147 23.363V28.1506C4.03147 28.9506 4.68031 29.5995 5.4772 29.5995H10.2585C12.2078 30.5831 14.3589 31.1007 16.5422 31.1114H16.6084C18.4919 31.1114 20.3156 30.746 22.0354 30.031C23.7124 29.333 25.237 28.3145 26.5238 27.0325C27.8215 25.7442 28.842 24.2386 29.557 22.5598C30.2972 20.8212 30.6751 18.9723 30.6846 17.0635C30.6909 15.1453 30.3192 13.2838 29.5885 11.5326ZM10.3152 18.5124C9.48367 18.5124 8.80648 17.8352 8.80648 17.0005C8.80648 16.1658 9.48367 15.4886 10.3152 15.4886C11.1467 15.4886 11.8239 16.1658 11.8239 17.0005C11.8239 17.8352 11.1499 18.5124 10.3152 18.5124ZM16.6021 18.5124C15.7706 18.5124 15.0934 17.8352 15.0934 17.0005C15.0934 16.1658 15.7706 15.4886 16.6021 15.4886C17.4336 15.4886 18.1108 16.1658 18.1108 17.0005C18.1108 17.8352 17.4336 18.5124 16.6021 18.5124ZM22.889 18.5124C22.0574 18.5124 21.3802 17.8352 21.3802 17.0005C21.3802 16.1658 22.0574 15.4886 22.889 15.4886C23.7205 15.4886 24.3977 16.1658 24.3977 17.0005C24.3977 17.8352 23.7205 18.5124 22.889 18.5124Z" fill="#555555"/>
</svg>
