<svg width="188" height="173" viewBox="0 0 188 173" fill="none" xmlns="http://www.w3.org/2000/svg">
<mask id="mask0_125_114" style="mask-type:alpha" maskUnits="userSpaceOnUse" x="21" y="20" width="146" height="133">
<ellipse cx="71.1487" cy="67.0442" rx="71.1487" ry="67.0442" transform="matrix(0.945195 -0.327561 0.39186 0.920481 0.55957 48.1984)" fill="#D9D9D9"/>
<path d="M68.5925 26.7339C104.797 14.1872 145.407 30.9903 159.44 63.955C173.474 96.9198 155.773 133.932 119.569 146.478C83.365 159.025 42.7554 142.221 28.7218 109.256C14.6885 76.2912 32.3885 39.2806 68.5925 26.7339Z" stroke="#28E5FA" stroke-opacity="0.34" stroke-width="4"/>
</mask>
<g mask="url(#mask0_125_114)">
<line y1="-2" x2="256.141" y2="-2" transform="matrix(0.384623 0.922961 -0.942717 0.333338 -61.1333 17.769)" stroke="#28E5FA" stroke-opacity="0.34" stroke-width="4"/>
<line y1="-2" x2="256.141" y2="-2" transform="matrix(0.384623 0.922961 -0.942717 0.333338 -52.7065 14.7892)" stroke="#28E5FA" stroke-opacity="0.34" stroke-width="4"/>
<line y1="-2" x2="256.141" y2="-2" transform="matrix(0.384623 0.922961 -0.942717 0.333338 -44.2793 11.8095)" stroke="#28E5FA" stroke-opacity="0.34" stroke-width="4"/>
<line y1="-2" x2="256.141" y2="-2" transform="matrix(0.384623 0.922961 -0.942717 0.333338 -35.853 8.82977)" stroke="#28E5FA" stroke-opacity="0.34" stroke-width="4"/>
<line y1="-2" x2="256.141" y2="-2" transform="matrix(0.384623 0.922961 -0.942717 0.333338 -27.4258 5.8501)" stroke="#28E5FA" stroke-opacity="0.34" stroke-width="4"/>
<line y1="-2" x2="256.141" y2="-2" transform="matrix(0.384623 0.922961 -0.942717 0.333338 -18.999 2.87048)" stroke="#28E5FA" stroke-opacity="0.34" stroke-width="4"/>
<line y1="-2" x2="256.141" y2="-2" transform="matrix(0.384623 0.922961 -0.942717 0.333338 -10.5723 -0.109192)" stroke="#28E5FA" stroke-opacity="0.34" stroke-width="4"/>
<line y1="-2" x2="256.141" y2="-2" transform="matrix(0.384623 0.922961 -0.942717 0.333338 -2.14551 -3.08893)" stroke="#28E5FA" stroke-opacity="0.34" stroke-width="4"/>
<line y1="-2" x2="256.141" y2="-2" transform="matrix(0.384623 0.922961 -0.942717 0.333338 6.28125 -6.06848)" stroke="#28E5FA" stroke-opacity="0.34" stroke-width="4"/>
<line y1="-2" x2="256.141" y2="-2" transform="matrix(0.384623 0.922961 -0.942717 0.333338 14.708 -9.04822)" stroke="#28E5FA" stroke-opacity="0.34" stroke-width="4"/>
<line y1="-2" x2="256.141" y2="-2" transform="matrix(0.384623 0.922961 -0.942717 0.333338 23.1353 -12.028)" stroke="#28E5FA" stroke-opacity="0.34" stroke-width="4"/>
<line y1="-2" x2="256.141" y2="-2" transform="matrix(0.384623 0.922961 -0.942717 0.333338 31.562 -15.0076)" stroke="#28E5FA" stroke-opacity="0.34" stroke-width="4"/>
<line y1="-2" x2="256.141" y2="-2" transform="matrix(0.384623 0.922961 -0.942717 0.333338 39.9888 -17.9873)" stroke="#28E5FA" stroke-opacity="0.34" stroke-width="4"/>
<line y1="-2" x2="256.141" y2="-2" transform="matrix(0.384623 0.922961 -0.942717 0.333338 48.4155 -20.9669)" stroke="#28E5FA" stroke-opacity="0.34" stroke-width="4"/>
<line y1="-2" x2="256.141" y2="-2" transform="matrix(0.384623 0.922961 -0.942717 0.333338 56.8423 -23.9466)" stroke="#28E5FA" stroke-opacity="0.34" stroke-width="4"/>
<line y1="-2" x2="256.141" y2="-2" transform="matrix(0.384623 0.922961 -0.942717 0.333338 65.269 -26.9265)" stroke="#28E5FA" stroke-opacity="0.34" stroke-width="4"/>
<line y1="-2" x2="256.141" y2="-2" transform="matrix(0.384623 0.922961 -0.942717 0.333338 73.6963 -29.9059)" stroke="#28E5FA" stroke-opacity="0.34" stroke-width="4"/>
<line y1="-2" x2="256.141" y2="-2" transform="matrix(0.384623 0.922961 -0.942717 0.333338 82.123 -32.8858)" stroke="#28E5FA" stroke-opacity="0.34" stroke-width="4"/>
<line y1="-2" x2="256.141" y2="-2" transform="matrix(0.384623 0.922961 -0.942717 0.333338 90.5498 -35.8653)" stroke="#28E5FA" stroke-opacity="0.34" stroke-width="4"/>
<line y1="-2" x2="256.141" y2="-2" transform="matrix(0.384623 0.922961 -0.942717 0.333338 98.9766 -38.8451)" stroke="#28E5FA" stroke-opacity="0.34" stroke-width="4"/>
<line y1="-2" x2="256.141" y2="-2" transform="matrix(0.384623 0.922961 -0.942717 0.333338 107.403 -41.8248)" stroke="#28E5FA" stroke-opacity="0.34" stroke-width="4"/>
<line y1="-2" x2="256.141" y2="-2" transform="matrix(0.384623 0.922961 -0.942717 0.333338 115.831 -44.8044)" stroke="#28E5FA" stroke-opacity="0.34" stroke-width="4"/>
<line y1="-2" x2="256.141" y2="-2" transform="matrix(0.384623 0.922961 -0.942717 0.333338 124.258 -47.7841)" stroke="#28E5FA" stroke-opacity="0.34" stroke-width="4"/>
<line y1="-2" x2="256.141" y2="-2" transform="matrix(0.384623 0.922961 -0.942717 0.333338 132.685 -50.7637)" stroke="#28E5FA" stroke-opacity="0.34" stroke-width="4"/>
<line y1="-2" x2="256.141" y2="-2" transform="matrix(0.384623 0.922961 -0.942717 0.333338 141.112 -53.7435)" stroke="#28E5FA" stroke-opacity="0.34" stroke-width="4"/>
<line y1="-2" x2="256.141" y2="-2" transform="matrix(0.384763 0.922914 -0.942668 0.333451 149.538 -56.723)" stroke="#28E5FA" stroke-opacity="0.34" stroke-width="4"/>
</g>
</svg>
