<svg width="23" height="22" viewBox="0 0 23 22" fill="none" xmlns="http://www.w3.org/2000/svg">
<path d="M11.6022 11.0004C10.1239 11.0004 8.85842 10.474 7.80571 9.42132C6.75299 8.3686 6.22664 7.10311 6.22664 5.62483C6.22664 4.14655 6.75299 2.88105 7.80571 1.82834C8.85842 0.775625 10.1239 0.249268 11.6022 0.249268C13.0805 0.249268 14.346 0.775625 15.3987 1.82834C16.4514 2.88105 16.9778 4.14655 16.9778 5.62483C16.9778 7.10311 16.4514 8.3686 15.3987 9.42132C14.346 10.474 13.0805 11.0004 11.6022 11.0004ZM0.851074 21.7515V17.9886C0.851074 17.2271 1.04728 16.5274 1.4397 15.8895C1.83211 15.2516 2.35265 14.7642 3.0013 14.4273C4.38999 13.733 5.80107 13.2124 7.23455 12.8657C8.66804 12.519 10.1239 12.3452 11.6022 12.3443C13.0805 12.3434 14.5364 12.5172 15.9698 12.8657C17.4033 13.2142 18.8144 13.7348 20.2031 14.4273C20.8526 14.7633 21.3736 15.2507 21.766 15.8895C22.1585 16.5283 22.3542 17.228 22.3533 17.9886V21.7515H0.851074Z" fill="#555555"/>
</svg>
