<svg width="45" height="44" viewBox="0 0 45 44" fill="none" xmlns="http://www.w3.org/2000/svg">
<path d="M22.2629 4.11707C19.8822 4.11707 17.5249 4.58598 15.3254 5.49703C13.1259 6.40808 11.1274 7.74342 9.44403 9.42682C6.04425 12.8266 4.13428 17.4377 4.13428 22.2457C4.13428 30.2586 9.3372 37.0568 16.5343 39.4679C17.4407 39.6129 17.7308 39.051 17.7308 38.5615V35.4977C12.7091 36.5855 11.6395 33.0685 11.6395 33.0685C10.8056 30.9656 9.62726 30.4036 9.62726 30.4036C7.97755 29.2796 9.75416 29.3159 9.75416 29.3159C11.567 29.4428 12.5278 31.1831 12.5278 31.1831C14.105 33.9387 16.7699 33.1229 17.8033 32.6878C17.9664 31.5094 18.4378 30.7118 18.9454 30.2586C14.9208 29.8054 10.6968 28.2463 10.6968 21.3393C10.6968 19.327 11.3857 17.7135 12.5641 16.4264C12.3828 15.9732 11.7483 14.0878 12.7454 11.6405C12.7454 11.6405 14.2682 11.151 17.7308 13.4896C19.1629 13.0907 20.722 12.8913 22.2629 12.8913C23.8039 12.8913 25.3629 13.0907 26.7951 13.4896C30.2577 11.151 31.7805 11.6405 31.7805 11.6405C32.7775 14.0878 32.143 15.9732 31.9617 16.4264C33.1401 17.7135 33.829 19.327 33.829 21.3393C33.829 28.2644 29.5869 29.7872 25.5442 30.2404C26.1968 30.8024 26.7951 31.9083 26.7951 33.5942V38.5615C26.7951 39.051 27.0851 39.6311 28.0097 39.4679C35.2068 37.0387 40.3916 30.2586 40.3916 22.2457C40.3916 19.865 39.9227 17.5076 39.0116 15.3082C38.1006 13.1087 36.7652 11.1102 35.0818 9.42682C33.3984 7.74342 31.3999 6.40808 29.2005 5.49703C27.001 4.58598 24.6436 4.11707 22.2629 4.11707Z" fill="#555555"/>
</svg>
