<svg width="268" height="268" viewBox="0 0 268 268" fill="none" xmlns="http://www.w3.org/2000/svg">
<path d="M189.275 133.442C198.731 123.988 205.603 112.267 209.236 99.3985C212.868 86.5303 213.139 72.9454 210.022 59.9426L237.883 47.9943C238.733 47.6301 239.66 47.4825 240.58 47.5648C241.501 47.6472 242.387 47.9568 243.158 48.466C243.93 48.9752 244.563 49.668 245.001 50.4822C245.438 51.2964 245.667 52.2065 245.666 53.1309V212.167L167.5 245.667L100.5 212.167L30.1162 242.328C29.2665 242.692 28.3398 242.84 27.419 242.757C26.4983 242.675 25.6124 242.365 24.8409 241.856C24.0694 241.347 23.4363 240.654 22.9986 239.84C22.5609 239.026 22.3322 238.116 22.333 237.191V78.1666L57.2735 63.1921C54.822 75.7611 55.4961 88.74 59.2366 100.987C62.977 113.235 69.6692 124.376 78.7247 133.43L134 188.717L189.275 133.442ZM173.485 117.652L134 157.115L94.5143 117.641C86.7074 109.832 81.3912 99.8832 79.2381 89.053C77.0849 78.2228 78.1915 66.9973 82.4178 56.796C86.6441 46.5946 93.8004 37.8755 102.982 31.7411C112.163 25.6067 122.958 22.3325 134 22.3325C145.042 22.3325 155.836 25.6067 165.017 31.7411C174.199 37.8755 181.355 46.5946 185.582 56.796C189.808 66.9973 190.914 78.2228 188.761 89.053C186.608 99.8832 181.292 109.832 173.485 117.641" fill="white"/>
</svg>
