<svg width="33" height="26" viewBox="0 0 33 26" fill="none" xmlns="http://www.w3.org/2000/svg">
<path d="M21.35 1.33264L31.4855 11.7038C31.8214 12.0476 32.0101 12.5138 32.0101 13C32.0101 13.4861 31.8214 13.9523 31.4855 14.2961L21.35 24.6673C21.0121 25.0013 20.5596 25.1861 20.0898 25.1819C19.62 25.1777 19.1706 24.9849 18.8384 24.645C18.5063 24.3051 18.3178 23.8452 18.3138 23.3645C18.3097 22.8839 18.4903 22.4208 18.8166 22.075L25.8937 14.8333H2.16667C1.69149 14.8333 1.23577 14.6402 0.899767 14.2963C0.563764 13.9525 0.375 13.4862 0.375 13C0.375 12.5137 0.563764 12.0474 0.899767 11.7036C1.23577 11.3598 1.69149 11.1666 2.16667 11.1666H25.8937L18.8166 3.92498C18.6455 3.75586 18.509 3.55356 18.4151 3.32989C18.3212 3.10621 18.2718 2.86564 18.2697 2.62221C18.2676 2.37878 18.313 2.13737 18.4031 1.91206C18.4932 1.68675 18.6262 1.48206 18.7944 1.30992C18.9626 1.13778 19.1627 1.00165 19.3829 0.909472C19.6031 0.81729 19.839 0.770903 20.0769 0.773018C20.3148 0.775134 20.5499 0.825709 20.7685 0.921792C20.9871 1.01787 21.1848 1.15754 21.35 1.33264Z" fill="white"/>
</svg>
