<svg width="44" height="45" viewBox="0 0 44 45" fill="none" xmlns="http://www.w3.org/2000/svg">
<path d="M34.4443 6.29968C35.4059 6.29968 36.3281 6.68168 37.0081 7.36163C37.688 8.04159 38.07 8.96381 38.07 9.92541V35.3055C38.07 36.2671 37.688 37.1893 37.0081 37.8693C36.3281 38.5492 35.4059 38.9312 34.4443 38.9312H9.06421C8.1026 38.9312 7.18038 38.5492 6.50043 37.8693C5.82047 37.1893 5.43848 36.2671 5.43848 35.3055V9.92541C5.43848 8.96381 5.82047 8.04159 6.50043 7.36163C7.18038 6.68168 8.1026 6.29968 9.06421 6.29968H34.4443ZM33.5379 34.3991V24.7909C33.5379 23.2235 32.9152 21.7203 31.8069 20.6119C30.6986 19.5036 29.1953 18.881 27.6279 18.881C26.087 18.881 24.2923 19.8236 23.4221 21.2377V19.2254H18.3642V34.3991H23.4221V25.4617C23.4221 24.0658 24.5461 22.9236 25.942 22.9236C26.6151 22.9236 27.2606 23.191 27.7366 23.667C28.2126 24.143 28.48 24.7885 28.48 25.4617V34.3991H33.5379ZM12.4724 16.3792C13.2801 16.3792 14.0548 16.0583 14.626 15.4872C15.1971 14.916 15.518 14.1413 15.518 13.3336C15.518 11.6476 14.1584 10.2699 12.4724 10.2699C11.6598 10.2699 10.8806 10.5926 10.306 11.1672C9.73144 11.7418 9.40865 12.521 9.40865 13.3336C9.40865 15.0196 10.7864 16.3792 12.4724 16.3792ZM14.9923 34.3991V19.2254H9.97064V34.3991H14.9923Z" fill="#555555"/>
</svg>
