<svg width="45" height="45" viewBox="0 0 45 45" fill="none" xmlns="http://www.w3.org/2000/svg">
<path d="M22.2825 4.48682C32.2949 4.48682 40.4111 12.603 40.4111 22.6155C40.4111 32.6279 32.2949 40.7441 22.2825 40.7441C19.0787 40.7496 15.9313 39.9018 13.1638 38.2877L4.16109 40.7441L6.61208 31.7378C4.99674 28.9694 4.14822 25.8206 4.15384 22.6155C4.15384 12.603 12.27 4.48682 22.2825 4.48682ZM16.1042 14.095L15.7417 14.1095C15.5072 14.1257 15.2782 14.1872 15.0673 14.2908C14.8707 14.4023 14.6912 14.5415 14.5343 14.7041C14.3168 14.909 14.1935 15.0866 14.0611 15.2589C13.3906 16.1307 13.0296 17.201 13.0351 18.3008C13.0387 19.1891 13.2707 20.0539 13.6333 20.8624C14.3748 22.4976 15.5948 24.2289 17.2046 25.8333C17.5926 26.2194 17.9733 26.6074 18.383 26.9681C20.3834 28.7292 22.767 29.9992 25.3444 30.6773L26.3741 30.835C26.7095 30.8531 27.0449 30.8277 27.3821 30.8114C27.9099 30.7836 28.4254 30.6407 28.8922 30.3926C29.1294 30.27 29.3611 30.1369 29.5865 29.9938C29.5865 29.9938 29.6633 29.9418 29.8131 29.8307C30.0579 29.6494 30.2083 29.5207 30.4114 29.3086C30.5636 29.1514 30.6905 28.9689 30.7921 28.7611C30.9335 28.4656 31.0749 27.9018 31.1329 27.4322C31.1764 27.0733 31.1637 26.8775 31.1583 26.756C31.151 26.5621 30.9897 26.3608 30.8138 26.2756L29.7587 25.8025C29.7587 25.8025 28.1815 25.1154 27.2171 24.6767C27.1161 24.6327 27.008 24.6075 26.898 24.6024C26.774 24.5894 26.6486 24.6032 26.5304 24.6429C26.4121 24.6827 26.3038 24.7473 26.2128 24.8326C26.2037 24.829 26.0822 24.9323 24.7715 26.5204C24.6963 26.6215 24.5927 26.6979 24.4739 26.7398C24.3551 26.7818 24.2264 26.7874 24.1044 26.756C23.9863 26.7246 23.8705 26.6846 23.7581 26.6364C23.5334 26.5421 23.4554 26.5059 23.3013 26.4406C22.2605 25.9872 21.2971 25.3737 20.446 24.6223C20.2176 24.4229 20.0055 24.2053 19.788 23.995C19.0748 23.312 18.4533 22.5393 17.9389 21.6963L17.8319 21.5241C17.7562 21.4077 17.6942 21.283 17.647 21.1525C17.5781 20.886 17.7576 20.6721 17.7576 20.6721C17.7576 20.6721 18.1981 20.1898 18.4029 19.9288C18.6024 19.675 18.771 19.4284 18.8797 19.2526C19.0936 18.9082 19.1607 18.5546 19.0483 18.2809C18.5407 17.0409 18.0162 15.8075 17.4748 14.5808C17.3678 14.3379 17.0506 14.1639 16.7623 14.1294C16.6644 14.1174 16.5665 14.1077 16.4686 14.1004C16.2252 14.0865 15.9811 14.0889 15.738 14.1077L16.1042 14.095Z" fill="#555555"/>
</svg>
