<svg width="268" height="268" viewBox="0 0 268 268" fill="none" xmlns="http://www.w3.org/2000/svg">
<path d="M73.9233 120.488C90.0033 152.09 115.91 177.885 147.512 194.077L172.078 169.51C175.093 166.495 179.56 165.49 183.468 166.83C195.975 170.962 209.487 173.195 223.333 173.195C229.475 173.195 234.5 178.22 234.5 184.362V223.333C234.5 229.475 229.475 234.5 223.333 234.5C118.478 234.5 33.5 149.522 33.5 44.6667C33.5 38.525 38.525 33.5 44.6667 33.5H83.75C89.8917 33.5 94.9167 38.525 94.9167 44.6667C94.9167 58.625 97.15 72.025 101.282 84.5317C102.51 88.44 101.617 92.795 98.49 95.9217L73.9233 120.488Z" fill="white"/>
</svg>
