<svg width="152" height="152" viewBox="0 0 152 152" fill="none" xmlns="http://www.w3.org/2000/svg">
<path d="M149.625 0.933036C151.491 2.29018 152.255 4.0997 151.915 6.36161L130.201 136.647C129.918 138.287 129.014 139.56 127.487 140.464C126.695 140.917 125.819 141.143 124.857 141.143C124.235 141.143 123.557 141.001 122.822 140.719L84.3975 125.027L63.8707 150.049C62.8528 151.35 61.4674 152 59.7144 152C58.9793 152 58.3573 151.887 57.8484 151.661C56.774 151.265 55.9116 150.6 55.2613 149.667C54.611 148.734 54.2859 147.702 54.2859 146.571V116.969L127.572 27.1429L36.8975 105.603L3.393 91.8616C1.30074 91.0699 0.16979 89.5149 0.000147259 87.1964C-0.112948 84.9345 0.791814 83.2664 2.71443 82.192L143.857 0.763393C144.705 0.254464 145.61 0 146.572 0C147.703 0 148.72 0.311012 149.625 0.933036Z" fill="#28E5FA"/>
</svg>
