<svg width="256" height="256" viewBox="0 0 256 256" fill="none" xmlns="http://www.w3.org/2000/svg">
<path fill-rule="evenodd" clip-rule="evenodd" d="M25.5996 108.8C25.5996 107.103 26.2739 105.475 27.4741 104.274C28.6744 103.074 30.3022 102.4 31.9996 102.4H176.742C178.439 102.4 180.067 103.074 181.267 104.274C182.468 105.475 183.142 107.103 183.142 108.8C183.142 110.497 182.468 112.125 181.267 113.325C180.067 114.526 178.439 115.2 176.742 115.2H31.9996C30.3022 115.2 28.6744 114.526 27.4741 113.325C26.2739 112.125 25.5996 110.497 25.5996 108.8ZM25.5996 57.6C25.5996 55.9026 26.2739 54.2747 27.4741 53.0745C28.6744 51.8742 30.3022 51.2 31.9996 51.2H224C225.697 51.2 227.325 51.8742 228.525 53.0745C229.725 54.2747 230.4 55.9026 230.4 57.6C230.4 59.2973 229.725 60.9252 228.525 62.1254C227.325 63.3257 225.697 64 224 64H31.9996C30.3022 64 28.6744 63.3257 27.4741 62.1254C26.2739 60.9252 25.5996 59.2973 25.5996 57.6ZM25.5996 160C25.5996 158.303 26.2739 156.675 27.4741 155.474C28.6744 154.274 30.3022 153.6 31.9996 153.6H224C225.697 153.6 227.325 154.274 228.525 155.474C229.725 156.675 230.4 158.303 230.4 160C230.4 161.697 229.725 163.325 228.525 164.525C227.325 165.726 225.697 166.4 224 166.4H31.9996C30.3022 166.4 28.6744 165.726 27.4741 164.525C26.2739 163.325 25.5996 161.697 25.5996 160ZM25.5996 211.2C25.5996 209.503 26.2739 207.875 27.4741 206.674C28.6744 205.474 30.3022 204.8 31.9996 204.8H176.742C178.439 204.8 180.067 205.474 181.267 206.674C182.468 207.875 183.142 209.503 183.142 211.2C183.142 212.897 182.468 214.525 181.267 215.725C180.067 216.926 178.439 217.6 176.742 217.6H31.9996C30.3022 217.6 28.6744 216.926 27.4741 215.725C26.2739 214.525 25.5996 212.897 25.5996 211.2Z" fill="white"/>
</svg>
