<svg width="256" height="256" viewBox="0 0 256 256" fill="none" xmlns="http://www.w3.org/2000/svg">
<path d="M242.987 118.613L216.747 92.3733C216.293 91.8332 216.031 91.1582 216 90.4533V53.3333C216 49.7971 214.596 46.4057 212.095 43.9053C209.595 41.4048 206.203 40 202.667 40H165.547C164.842 39.9696 164.167 39.7071 163.627 39.2534L137.387 13.0134C136.157 11.7749 134.695 10.792 133.084 10.1213C131.473 9.45054 129.745 9.10522 128 9.10522C126.255 9.10522 124.527 9.45054 122.916 10.1213C121.305 10.792 119.843 11.7749 118.614 13.0134L92.3736 39.2534C91.8334 39.7071 91.1584 39.9696 90.4536 40H53.3336C49.7974 40 46.406 41.4048 43.9055 43.9053C41.405 46.4057 40.0003 49.7971 40.0003 53.3333V90.4533C39.9698 91.1582 39.7073 91.8332 39.2536 92.3733L13.0136 118.613C11.7752 119.843 10.7923 121.305 10.1215 122.916C9.45079 124.527 9.10547 126.255 9.10547 128C9.10547 129.745 9.45079 131.473 10.1215 133.084C10.7923 134.695 11.7752 136.157 13.0136 137.387L39.2536 163.627C39.7073 164.167 39.9698 164.842 40.0003 165.547V202.667C40.0003 206.203 41.405 209.594 43.9055 212.095C46.406 214.595 49.7974 216 53.3336 216H90.4536C91.1584 216.03 91.8334 216.293 92.3736 216.747L118.614 242.987C119.843 244.225 121.305 245.208 122.916 245.879C124.527 246.55 126.255 246.895 128 246.895C129.745 246.895 131.473 246.55 133.084 245.879C134.695 245.208 136.157 244.225 137.387 242.987L163.627 216.747C164.167 216.293 164.842 216.03 165.547 216H202.667C206.203 216 209.595 214.595 212.095 212.095C214.596 209.594 216 206.203 216 202.667V165.547C216.031 164.842 216.293 164.167 216.747 163.627L242.987 137.387C244.225 136.157 245.208 134.695 245.879 133.084C246.55 131.473 246.895 129.745 246.895 128C246.895 126.255 246.55 124.527 245.879 122.916C245.208 121.305 244.225 119.843 242.987 118.613ZM181.334 128C181.344 141.801 176.004 155.068 166.436 165.014C156.868 174.959 143.818 180.809 130.027 181.333C129.506 181.286 129.017 181.057 128.647 180.687C128.277 180.316 128.048 179.828 128 179.307V77.44C127.991 77.0768 128.063 76.7161 128.211 76.384C128.359 76.052 128.578 75.7569 128.854 75.52C129.079 75.2316 129.373 75.003 129.707 74.8543C130.042 74.7055 130.408 74.6411 130.774 74.6667C144.432 75.3779 157.296 81.3094 166.706 91.2353C176.115 101.161 181.352 114.323 181.334 128Z" fill="black"/>
</svg>
