<svg width="44" height="44" viewBox="0 0 44 44" fill="none" xmlns="http://www.w3.org/2000/svg">
<path d="M23.6002 3.57166C25.6397 3.57709 26.6748 3.58797 27.5686 3.61335L27.9203 3.62604C28.3264 3.64054 28.727 3.65867 29.211 3.68043C31.1399 3.77107 32.4561 4.07563 33.6109 4.52341C34.8074 4.98388 35.8153 5.6075 36.8233 6.61364C37.7455 7.51959 38.4588 8.6159 38.9135 9.82604C39.3613 10.9808 39.6658 12.297 39.7565 14.2277C39.7782 14.7099 39.7964 15.1105 39.8109 15.5184L39.8217 15.8701C39.8489 16.7621 39.8598 17.7972 39.8634 19.8367L39.8652 21.1891V23.5639C39.8697 24.8862 39.8558 26.2085 39.8236 27.5305L39.8127 27.8822C39.7982 28.2901 39.78 28.6907 39.7583 29.1729C39.6676 31.1036 39.3595 32.4179 38.9135 33.5746C38.4588 34.7847 37.7455 35.881 36.8233 36.787C35.9173 37.7091 34.821 38.4225 33.6109 38.8772C32.4561 39.325 31.1399 39.6295 29.211 39.7202L27.9203 39.7745L27.5686 39.7854C26.6748 39.8108 25.6397 39.8235 23.6002 39.8271L22.2478 39.8289H19.8748C18.5519 39.8336 17.229 39.8197 15.9064 39.7872L15.5547 39.7764C15.1244 39.7601 14.6941 39.7413 14.264 39.7202C12.3351 39.6295 11.019 39.325 9.86235 38.8772C8.65286 38.4223 7.55719 37.7089 6.65176 36.787C5.72892 35.8812 5.01494 34.7849 4.55972 33.5746C4.11194 32.4198 3.80738 31.1036 3.71674 29.1729L3.66235 27.8822L3.65329 27.5305C3.61987 26.2086 3.60476 24.8862 3.60796 23.5639V19.8367C3.60295 18.5144 3.61624 17.1921 3.64785 15.8701L3.66054 15.5184C3.67504 15.1105 3.69317 14.7099 3.71492 14.2277C3.80557 12.297 4.11013 10.9826 4.55791 9.82604C5.01419 8.6154 5.72942 7.51905 6.65358 6.61364C7.55847 5.69189 8.65351 4.97857 9.86235 4.52341C11.019 4.07563 12.3333 3.77107 14.264 3.68043C14.7462 3.65867 15.1487 3.64054 15.5547 3.62604L15.9064 3.61516C17.2284 3.58295 18.5507 3.56905 19.873 3.57347L23.6002 3.57166ZM21.7366 12.636C19.3326 12.636 17.0271 13.591 15.3272 15.2909C13.6273 16.9907 12.6723 19.2963 12.6723 21.7003C12.6723 24.1043 13.6273 26.4098 15.3272 28.1097C17.0271 29.8096 19.3326 30.7646 21.7366 30.7646C24.1406 30.7646 26.4462 29.8096 28.146 28.1097C29.8459 26.4098 30.8009 24.1043 30.8009 21.7003C30.8009 19.2963 29.8459 16.9907 28.146 15.2909C26.4462 13.591 24.1406 12.636 21.7366 12.636ZM21.7366 16.2617C22.4508 16.2616 23.158 16.4021 23.8179 16.6753C24.4778 16.9486 25.0774 17.3491 25.5825 17.854C26.0876 18.3589 26.4883 18.9584 26.7618 19.6182C27.0352 20.278 27.176 20.9852 27.1761 21.6994C27.1762 22.4136 27.0357 23.1208 26.7625 23.7807C26.4893 24.4406 26.0888 25.0402 25.5838 25.5453C25.0789 26.0504 24.4794 26.4511 23.8196 26.7246C23.1598 26.998 22.4526 27.1388 21.7384 27.1389C20.296 27.1389 18.9127 26.5659 17.8928 25.546C16.8728 24.526 16.2998 23.1427 16.2998 21.7003C16.2998 20.2579 16.8728 18.8746 17.8928 17.8546C18.9127 16.8347 20.296 16.2617 21.7384 16.2617M31.256 9.91668C30.655 9.91668 30.0786 10.1554 29.6536 10.5804C29.2286 11.0054 28.9899 11.5818 28.9899 12.1828C28.9899 12.7838 29.2286 13.3601 29.6536 13.7851C30.0786 14.2101 30.655 14.4488 31.256 14.4488C31.857 14.4488 32.4333 14.2101 32.8583 13.7851C33.2833 13.3601 33.522 12.7838 33.522 12.1828C33.522 11.5818 33.2833 11.0054 32.8583 10.5804C32.4333 10.1554 31.857 9.91668 31.256 9.91668Z" fill="#555555"/>
</svg>
